%TF.GenerationSoftware,KiCad,Pcbnew,10.0.2*%
%TF.CreationDate,2026-08-07T02:37:56+05:30*%
%TF.ProjectId,IoT based Smart  Adaptive Street Lighting,496f5420-6261-4736-9564-20536d617274,rev?*%
%TF.SameCoordinates,Original*%
%TF.FileFunction,Legend,Top*%
%TF.FilePolarity,Positive*%
%FSLAX46Y46*%
G04 Gerber Fmt 4.6, Leading zero omitted, Abs format (unit mm)*
G04 Created by KiCad (PCBNEW 10.0.2) date 2026-08-07 02:37:56*
%MOMM*%
%LPD*%
G01*
G04 APERTURE LIST*
%ADD10C,0.100000*%
%ADD11C,0.150000*%
%ADD12C,0.120000*%
G04 APERTURE END LIST*
D10*
X129256265Y-47586704D02*
X129732455Y-47586704D01*
X129161027Y-47872419D02*
X129494360Y-46872419D01*
X129494360Y-46872419D02*
X129827693Y-47872419D01*
X130161027Y-47205752D02*
X130161027Y-47872419D01*
X130161027Y-47300990D02*
X130208646Y-47253371D01*
X130208646Y-47253371D02*
X130303884Y-47205752D01*
X130303884Y-47205752D02*
X130446741Y-47205752D01*
X130446741Y-47205752D02*
X130541979Y-47253371D01*
X130541979Y-47253371D02*
X130589598Y-47348609D01*
X130589598Y-47348609D02*
X130589598Y-47872419D01*
X130922932Y-47205752D02*
X131303884Y-47205752D01*
X131065789Y-46872419D02*
X131065789Y-47729561D01*
X131065789Y-47729561D02*
X131113408Y-47824800D01*
X131113408Y-47824800D02*
X131208646Y-47872419D01*
X131208646Y-47872419D02*
X131303884Y-47872419D01*
X132018170Y-47824800D02*
X131922932Y-47872419D01*
X131922932Y-47872419D02*
X131732456Y-47872419D01*
X131732456Y-47872419D02*
X131637218Y-47824800D01*
X131637218Y-47824800D02*
X131589599Y-47729561D01*
X131589599Y-47729561D02*
X131589599Y-47348609D01*
X131589599Y-47348609D02*
X131637218Y-47253371D01*
X131637218Y-47253371D02*
X131732456Y-47205752D01*
X131732456Y-47205752D02*
X131922932Y-47205752D01*
X131922932Y-47205752D02*
X132018170Y-47253371D01*
X132018170Y-47253371D02*
X132065789Y-47348609D01*
X132065789Y-47348609D02*
X132065789Y-47443847D01*
X132065789Y-47443847D02*
X131589599Y-47539085D01*
X132494361Y-47205752D02*
X132494361Y-47872419D01*
X132494361Y-47300990D02*
X132541980Y-47253371D01*
X132541980Y-47253371D02*
X132637218Y-47205752D01*
X132637218Y-47205752D02*
X132780075Y-47205752D01*
X132780075Y-47205752D02*
X132875313Y-47253371D01*
X132875313Y-47253371D02*
X132922932Y-47348609D01*
X132922932Y-47348609D02*
X132922932Y-47872419D01*
X133399123Y-47205752D02*
X133399123Y-47872419D01*
X133399123Y-47300990D02*
X133446742Y-47253371D01*
X133446742Y-47253371D02*
X133541980Y-47205752D01*
X133541980Y-47205752D02*
X133684837Y-47205752D01*
X133684837Y-47205752D02*
X133780075Y-47253371D01*
X133780075Y-47253371D02*
X133827694Y-47348609D01*
X133827694Y-47348609D02*
X133827694Y-47872419D01*
X134732456Y-47872419D02*
X134732456Y-47348609D01*
X134732456Y-47348609D02*
X134684837Y-47253371D01*
X134684837Y-47253371D02*
X134589599Y-47205752D01*
X134589599Y-47205752D02*
X134399123Y-47205752D01*
X134399123Y-47205752D02*
X134303885Y-47253371D01*
X134732456Y-47824800D02*
X134637218Y-47872419D01*
X134637218Y-47872419D02*
X134399123Y-47872419D01*
X134399123Y-47872419D02*
X134303885Y-47824800D01*
X134303885Y-47824800D02*
X134256266Y-47729561D01*
X134256266Y-47729561D02*
X134256266Y-47634323D01*
X134256266Y-47634323D02*
X134303885Y-47539085D01*
X134303885Y-47539085D02*
X134399123Y-47491466D01*
X134399123Y-47491466D02*
X134637218Y-47491466D01*
X134637218Y-47491466D02*
X134732456Y-47443847D01*
D11*
X157454819Y-83499999D02*
X156454819Y-83499999D01*
X156454819Y-83499999D02*
X156454819Y-83261904D01*
X156454819Y-83261904D02*
X156502438Y-83119047D01*
X156502438Y-83119047D02*
X156597676Y-83023809D01*
X156597676Y-83023809D02*
X156692914Y-82976190D01*
X156692914Y-82976190D02*
X156883390Y-82928571D01*
X156883390Y-82928571D02*
X157026247Y-82928571D01*
X157026247Y-82928571D02*
X157216723Y-82976190D01*
X157216723Y-82976190D02*
X157311961Y-83023809D01*
X157311961Y-83023809D02*
X157407200Y-83119047D01*
X157407200Y-83119047D02*
X157454819Y-83261904D01*
X157454819Y-83261904D02*
X157454819Y-83499999D01*
X157454819Y-82499999D02*
X156454819Y-82499999D01*
X156931009Y-82499999D02*
X156931009Y-81928571D01*
X157454819Y-81928571D02*
X156454819Y-81928571D01*
X156454819Y-81595237D02*
X156454819Y-81023809D01*
X157454819Y-81309523D02*
X156454819Y-81309523D01*
X156550057Y-79976189D02*
X156502438Y-79928570D01*
X156502438Y-79928570D02*
X156454819Y-79833332D01*
X156454819Y-79833332D02*
X156454819Y-79595237D01*
X156454819Y-79595237D02*
X156502438Y-79499999D01*
X156502438Y-79499999D02*
X156550057Y-79452380D01*
X156550057Y-79452380D02*
X156645295Y-79404761D01*
X156645295Y-79404761D02*
X156740533Y-79404761D01*
X156740533Y-79404761D02*
X156883390Y-79452380D01*
X156883390Y-79452380D02*
X157454819Y-80023808D01*
X157454819Y-80023808D02*
X157454819Y-79404761D01*
X156550057Y-79023808D02*
X156502438Y-78976189D01*
X156502438Y-78976189D02*
X156454819Y-78880951D01*
X156454819Y-78880951D02*
X156454819Y-78642856D01*
X156454819Y-78642856D02*
X156502438Y-78547618D01*
X156502438Y-78547618D02*
X156550057Y-78499999D01*
X156550057Y-78499999D02*
X156645295Y-78452380D01*
X156645295Y-78452380D02*
X156740533Y-78452380D01*
X156740533Y-78452380D02*
X156883390Y-78499999D01*
X156883390Y-78499999D02*
X157454819Y-79071427D01*
X157454819Y-79071427D02*
X157454819Y-78452380D01*
X108454819Y-66357142D02*
X107454819Y-66357142D01*
X108454819Y-65309524D02*
X107978628Y-65642857D01*
X108454819Y-65880952D02*
X107454819Y-65880952D01*
X107454819Y-65880952D02*
X107454819Y-65500000D01*
X107454819Y-65500000D02*
X107502438Y-65404762D01*
X107502438Y-65404762D02*
X107550057Y-65357143D01*
X107550057Y-65357143D02*
X107645295Y-65309524D01*
X107645295Y-65309524D02*
X107788152Y-65309524D01*
X107788152Y-65309524D02*
X107883390Y-65357143D01*
X107883390Y-65357143D02*
X107931009Y-65404762D01*
X107931009Y-65404762D02*
X107978628Y-65500000D01*
X107978628Y-65500000D02*
X107978628Y-65880952D01*
X107550057Y-64166666D02*
X107502438Y-64119047D01*
X107502438Y-64119047D02*
X107454819Y-64023809D01*
X107454819Y-64023809D02*
X107454819Y-63785714D01*
X107454819Y-63785714D02*
X107502438Y-63690476D01*
X107502438Y-63690476D02*
X107550057Y-63642857D01*
X107550057Y-63642857D02*
X107645295Y-63595238D01*
X107645295Y-63595238D02*
X107740533Y-63595238D01*
X107740533Y-63595238D02*
X107883390Y-63642857D01*
X107883390Y-63642857D02*
X108454819Y-64214285D01*
X108454819Y-64214285D02*
X108454819Y-63595238D01*
X108454819Y-53857142D02*
X107454819Y-53857142D01*
X108454819Y-52809524D02*
X107978628Y-53142857D01*
X108454819Y-53380952D02*
X107454819Y-53380952D01*
X107454819Y-53380952D02*
X107454819Y-53000000D01*
X107454819Y-53000000D02*
X107502438Y-52904762D01*
X107502438Y-52904762D02*
X107550057Y-52857143D01*
X107550057Y-52857143D02*
X107645295Y-52809524D01*
X107645295Y-52809524D02*
X107788152Y-52809524D01*
X107788152Y-52809524D02*
X107883390Y-52857143D01*
X107883390Y-52857143D02*
X107931009Y-52904762D01*
X107931009Y-52904762D02*
X107978628Y-53000000D01*
X107978628Y-53000000D02*
X107978628Y-53380952D01*
X108454819Y-51095238D02*
X108454819Y-51666666D01*
X108454819Y-51380952D02*
X107454819Y-51380952D01*
X107454819Y-51380952D02*
X107597676Y-51476190D01*
X107597676Y-51476190D02*
X107692914Y-51571428D01*
X107692914Y-51571428D02*
X107740533Y-51666666D01*
X154407200Y-69214285D02*
X154454819Y-69071428D01*
X154454819Y-69071428D02*
X154454819Y-68833333D01*
X154454819Y-68833333D02*
X154407200Y-68738095D01*
X154407200Y-68738095D02*
X154359580Y-68690476D01*
X154359580Y-68690476D02*
X154264342Y-68642857D01*
X154264342Y-68642857D02*
X154169104Y-68642857D01*
X154169104Y-68642857D02*
X154073866Y-68690476D01*
X154073866Y-68690476D02*
X154026247Y-68738095D01*
X154026247Y-68738095D02*
X153978628Y-68833333D01*
X153978628Y-68833333D02*
X153931009Y-69023809D01*
X153931009Y-69023809D02*
X153883390Y-69119047D01*
X153883390Y-69119047D02*
X153835771Y-69166666D01*
X153835771Y-69166666D02*
X153740533Y-69214285D01*
X153740533Y-69214285D02*
X153645295Y-69214285D01*
X153645295Y-69214285D02*
X153550057Y-69166666D01*
X153550057Y-69166666D02*
X153502438Y-69119047D01*
X153502438Y-69119047D02*
X153454819Y-69023809D01*
X153454819Y-69023809D02*
X153454819Y-68785714D01*
X153454819Y-68785714D02*
X153502438Y-68642857D01*
X153788152Y-68309523D02*
X154454819Y-68119047D01*
X154454819Y-68119047D02*
X153978628Y-67928571D01*
X153978628Y-67928571D02*
X154454819Y-67738095D01*
X154454819Y-67738095D02*
X153788152Y-67547619D01*
X154454819Y-67166666D02*
X153788152Y-67166666D01*
X153454819Y-67166666D02*
X153502438Y-67214285D01*
X153502438Y-67214285D02*
X153550057Y-67166666D01*
X153550057Y-67166666D02*
X153502438Y-67119047D01*
X153502438Y-67119047D02*
X153454819Y-67166666D01*
X153454819Y-67166666D02*
X153550057Y-67166666D01*
X153788152Y-66833333D02*
X153788152Y-66452381D01*
X153454819Y-66690476D02*
X154311961Y-66690476D01*
X154311961Y-66690476D02*
X154407200Y-66642857D01*
X154407200Y-66642857D02*
X154454819Y-66547619D01*
X154454819Y-66547619D02*
X154454819Y-66452381D01*
X154407200Y-65690476D02*
X154454819Y-65785714D01*
X154454819Y-65785714D02*
X154454819Y-65976190D01*
X154454819Y-65976190D02*
X154407200Y-66071428D01*
X154407200Y-66071428D02*
X154359580Y-66119047D01*
X154359580Y-66119047D02*
X154264342Y-66166666D01*
X154264342Y-66166666D02*
X153978628Y-66166666D01*
X153978628Y-66166666D02*
X153883390Y-66119047D01*
X153883390Y-66119047D02*
X153835771Y-66071428D01*
X153835771Y-66071428D02*
X153788152Y-65976190D01*
X153788152Y-65976190D02*
X153788152Y-65785714D01*
X153788152Y-65785714D02*
X153835771Y-65690476D01*
X154454819Y-65261904D02*
X153454819Y-65261904D01*
X154454819Y-64833333D02*
X153931009Y-64833333D01*
X153931009Y-64833333D02*
X153835771Y-64880952D01*
X153835771Y-64880952D02*
X153788152Y-64976190D01*
X153788152Y-64976190D02*
X153788152Y-65119047D01*
X153788152Y-65119047D02*
X153835771Y-65214285D01*
X153835771Y-65214285D02*
X153883390Y-65261904D01*
X154454819Y-50500000D02*
X154454819Y-50976190D01*
X154454819Y-50976190D02*
X153454819Y-50976190D01*
X153931009Y-50166666D02*
X153931009Y-49833333D01*
X154454819Y-49690476D02*
X154454819Y-50166666D01*
X154454819Y-50166666D02*
X153454819Y-50166666D01*
X153454819Y-50166666D02*
X153454819Y-49690476D01*
X154454819Y-49261904D02*
X153454819Y-49261904D01*
X153454819Y-49261904D02*
X153454819Y-49023809D01*
X153454819Y-49023809D02*
X153502438Y-48880952D01*
X153502438Y-48880952D02*
X153597676Y-48785714D01*
X153597676Y-48785714D02*
X153692914Y-48738095D01*
X153692914Y-48738095D02*
X153883390Y-48690476D01*
X153883390Y-48690476D02*
X154026247Y-48690476D01*
X154026247Y-48690476D02*
X154216723Y-48738095D01*
X154216723Y-48738095D02*
X154311961Y-48785714D01*
X154311961Y-48785714D02*
X154407200Y-48880952D01*
X154407200Y-48880952D02*
X154454819Y-49023809D01*
X154454819Y-49023809D02*
X154454819Y-49261904D01*
X154454819Y-46976190D02*
X154454819Y-47547618D01*
X154454819Y-47261904D02*
X153454819Y-47261904D01*
X153454819Y-47261904D02*
X153597676Y-47357142D01*
X153597676Y-47357142D02*
X153692914Y-47452380D01*
X153692914Y-47452380D02*
X153740533Y-47547618D01*
X154454819Y-58500000D02*
X154454819Y-58976190D01*
X154454819Y-58976190D02*
X153454819Y-58976190D01*
X153931009Y-58166666D02*
X153931009Y-57833333D01*
X154454819Y-57690476D02*
X154454819Y-58166666D01*
X154454819Y-58166666D02*
X153454819Y-58166666D01*
X153454819Y-58166666D02*
X153454819Y-57690476D01*
X154454819Y-57261904D02*
X153454819Y-57261904D01*
X153454819Y-57261904D02*
X153454819Y-57023809D01*
X153454819Y-57023809D02*
X153502438Y-56880952D01*
X153502438Y-56880952D02*
X153597676Y-56785714D01*
X153597676Y-56785714D02*
X153692914Y-56738095D01*
X153692914Y-56738095D02*
X153883390Y-56690476D01*
X153883390Y-56690476D02*
X154026247Y-56690476D01*
X154026247Y-56690476D02*
X154216723Y-56738095D01*
X154216723Y-56738095D02*
X154311961Y-56785714D01*
X154311961Y-56785714D02*
X154407200Y-56880952D01*
X154407200Y-56880952D02*
X154454819Y-57023809D01*
X154454819Y-57023809D02*
X154454819Y-57261904D01*
X153550057Y-55547618D02*
X153502438Y-55499999D01*
X153502438Y-55499999D02*
X153454819Y-55404761D01*
X153454819Y-55404761D02*
X153454819Y-55166666D01*
X153454819Y-55166666D02*
X153502438Y-55071428D01*
X153502438Y-55071428D02*
X153550057Y-55023809D01*
X153550057Y-55023809D02*
X153645295Y-54976190D01*
X153645295Y-54976190D02*
X153740533Y-54976190D01*
X153740533Y-54976190D02*
X153883390Y-55023809D01*
X153883390Y-55023809D02*
X154454819Y-55595237D01*
X154454819Y-55595237D02*
X154454819Y-54976190D01*
X129476190Y-68931009D02*
X129809523Y-68931009D01*
X129952380Y-69454819D02*
X129476190Y-69454819D01*
X129476190Y-69454819D02*
X129476190Y-68454819D01*
X129476190Y-68454819D02*
X129952380Y-68454819D01*
X130333333Y-69407200D02*
X130476190Y-69454819D01*
X130476190Y-69454819D02*
X130714285Y-69454819D01*
X130714285Y-69454819D02*
X130809523Y-69407200D01*
X130809523Y-69407200D02*
X130857142Y-69359580D01*
X130857142Y-69359580D02*
X130904761Y-69264342D01*
X130904761Y-69264342D02*
X130904761Y-69169104D01*
X130904761Y-69169104D02*
X130857142Y-69073866D01*
X130857142Y-69073866D02*
X130809523Y-69026247D01*
X130809523Y-69026247D02*
X130714285Y-68978628D01*
X130714285Y-68978628D02*
X130523809Y-68931009D01*
X130523809Y-68931009D02*
X130428571Y-68883390D01*
X130428571Y-68883390D02*
X130380952Y-68835771D01*
X130380952Y-68835771D02*
X130333333Y-68740533D01*
X130333333Y-68740533D02*
X130333333Y-68645295D01*
X130333333Y-68645295D02*
X130380952Y-68550057D01*
X130380952Y-68550057D02*
X130428571Y-68502438D01*
X130428571Y-68502438D02*
X130523809Y-68454819D01*
X130523809Y-68454819D02*
X130761904Y-68454819D01*
X130761904Y-68454819D02*
X130904761Y-68502438D01*
X131333333Y-69454819D02*
X131333333Y-68454819D01*
X131333333Y-68454819D02*
X131714285Y-68454819D01*
X131714285Y-68454819D02*
X131809523Y-68502438D01*
X131809523Y-68502438D02*
X131857142Y-68550057D01*
X131857142Y-68550057D02*
X131904761Y-68645295D01*
X131904761Y-68645295D02*
X131904761Y-68788152D01*
X131904761Y-68788152D02*
X131857142Y-68883390D01*
X131857142Y-68883390D02*
X131809523Y-68931009D01*
X131809523Y-68931009D02*
X131714285Y-68978628D01*
X131714285Y-68978628D02*
X131333333Y-68978628D01*
X133000000Y-68454819D02*
X133619047Y-68454819D01*
X133619047Y-68454819D02*
X133285714Y-68835771D01*
X133285714Y-68835771D02*
X133428571Y-68835771D01*
X133428571Y-68835771D02*
X133523809Y-68883390D01*
X133523809Y-68883390D02*
X133571428Y-68931009D01*
X133571428Y-68931009D02*
X133619047Y-69026247D01*
X133619047Y-69026247D02*
X133619047Y-69264342D01*
X133619047Y-69264342D02*
X133571428Y-69359580D01*
X133571428Y-69359580D02*
X133523809Y-69407200D01*
X133523809Y-69407200D02*
X133428571Y-69454819D01*
X133428571Y-69454819D02*
X133142857Y-69454819D01*
X133142857Y-69454819D02*
X133047619Y-69407200D01*
X133047619Y-69407200D02*
X133000000Y-69359580D01*
X134000000Y-68550057D02*
X134047619Y-68502438D01*
X134047619Y-68502438D02*
X134142857Y-68454819D01*
X134142857Y-68454819D02*
X134380952Y-68454819D01*
X134380952Y-68454819D02*
X134476190Y-68502438D01*
X134476190Y-68502438D02*
X134523809Y-68550057D01*
X134523809Y-68550057D02*
X134571428Y-68645295D01*
X134571428Y-68645295D02*
X134571428Y-68740533D01*
X134571428Y-68740533D02*
X134523809Y-68883390D01*
X134523809Y-68883390D02*
X133952381Y-69454819D01*
X133952381Y-69454819D02*
X134571428Y-69454819D01*
X106454819Y-81690476D02*
X106454819Y-82166666D01*
X106454819Y-82166666D02*
X105454819Y-82166666D01*
X106454819Y-81357142D02*
X105454819Y-81357142D01*
X105454819Y-81357142D02*
X105454819Y-81119047D01*
X105454819Y-81119047D02*
X105502438Y-80976190D01*
X105502438Y-80976190D02*
X105597676Y-80880952D01*
X105597676Y-80880952D02*
X105692914Y-80833333D01*
X105692914Y-80833333D02*
X105883390Y-80785714D01*
X105883390Y-80785714D02*
X106026247Y-80785714D01*
X106026247Y-80785714D02*
X106216723Y-80833333D01*
X106216723Y-80833333D02*
X106311961Y-80880952D01*
X106311961Y-80880952D02*
X106407200Y-80976190D01*
X106407200Y-80976190D02*
X106454819Y-81119047D01*
X106454819Y-81119047D02*
X106454819Y-81357142D01*
X106454819Y-79785714D02*
X105978628Y-80119047D01*
X106454819Y-80357142D02*
X105454819Y-80357142D01*
X105454819Y-80357142D02*
X105454819Y-79976190D01*
X105454819Y-79976190D02*
X105502438Y-79880952D01*
X105502438Y-79880952D02*
X105550057Y-79833333D01*
X105550057Y-79833333D02*
X105645295Y-79785714D01*
X105645295Y-79785714D02*
X105788152Y-79785714D01*
X105788152Y-79785714D02*
X105883390Y-79833333D01*
X105883390Y-79833333D02*
X105931009Y-79880952D01*
X105931009Y-79880952D02*
X105978628Y-79976190D01*
X105978628Y-79976190D02*
X105978628Y-80357142D01*
%TO.C,DHT 22*%
D12*
X147150000Y-88240000D02*
X147150000Y-86970000D01*
X147400000Y-75000000D02*
X155400000Y-75000000D01*
X147400000Y-87990000D02*
X147400000Y-75000000D01*
X148420000Y-88240000D02*
X147150000Y-88240000D01*
X155400000Y-75000000D02*
X155400000Y-87990000D01*
X155400000Y-87990000D02*
X147400000Y-87990000D01*
%TO.C,IR 2*%
X110490000Y-61860000D02*
X110490000Y-64460000D01*
X110840000Y-61860000D02*
X110490000Y-61860000D01*
X113160000Y-61860000D02*
X113500000Y-61860000D01*
X113500000Y-61860000D02*
X113500000Y-66950000D01*
X113500000Y-62360000D02*
G75*
G02*
X113501736Y-66559917I-100000J-2100000D01*
G01*
%TO.C,IR 1*%
X110490000Y-49860000D02*
X110490000Y-52460000D01*
X110840000Y-49860000D02*
X110490000Y-49860000D01*
X113160000Y-49860000D02*
X113500000Y-49860000D01*
X113500000Y-49860000D02*
X113500000Y-54950000D01*
X113500000Y-50360000D02*
G75*
G02*
X113501736Y-54559917I-100000J-2100000D01*
G01*
%TO.C,Switch*%
X148640000Y-62350000D02*
X151360000Y-62350000D01*
X151360000Y-72570000D01*
X148640000Y-72570000D01*
X148640000Y-62350000D01*
%TO.C,LED 1*%
X148170000Y-47764000D02*
X148170000Y-47920000D01*
X148170000Y-50080000D02*
X148170000Y-50236000D01*
X148170000Y-47764484D02*
G75*
G02*
X151401437Y-47920000I1560000J-1235516D01*
G01*
X148689039Y-47920000D02*
G75*
G02*
X150770961Y-47920000I1040961J-1080000D01*
G01*
X150770961Y-50080000D02*
G75*
G02*
X148689039Y-50080000I-1040961J1080000D01*
G01*
X151401437Y-50080000D02*
G75*
G02*
X148170000Y-50235516I-1671437J1080000D01*
G01*
%TO.C,LED 2*%
X148170000Y-55764000D02*
X148170000Y-55920000D01*
X148170000Y-58080000D02*
X148170000Y-58236000D01*
X148170000Y-55764484D02*
G75*
G02*
X151401437Y-55920000I1560000J-1235516D01*
G01*
X148689039Y-55920000D02*
G75*
G02*
X150770961Y-55920000I1040961J-1080000D01*
G01*
X150770961Y-58080000D02*
G75*
G02*
X148689039Y-58080000I-1040961J1080000D01*
G01*
X151401437Y-58080000D02*
G75*
G02*
X148170000Y-58235516I-1671437J1080000D01*
G01*
%TO.C,ESP 32*%
X119155000Y-49695000D02*
X144555000Y-49695000D01*
X119155000Y-88615000D02*
X119155000Y-49695000D01*
X144555000Y-49695000D02*
X144555000Y-88615000D01*
X144555000Y-88615000D02*
X119155000Y-88615000D01*
%TO.C,LDR*%
X107150000Y-88240000D02*
X107150000Y-86970000D01*
X107400000Y-75000000D02*
X115400000Y-75000000D01*
X107400000Y-87990000D02*
X107400000Y-75000000D01*
X108420000Y-88240000D02*
X107150000Y-88240000D01*
X115400000Y-75000000D02*
X115400000Y-87990000D01*
X115400000Y-87990000D02*
X107400000Y-87990000D01*
%TD*%
M02*
