M48
; DRILL file KiCad 10.0.2 date 2026-08-07T02:38:04
; FORMAT={-:-/ absolute / metric / decimal}
; #@! TF.CreationDate,2026-08-07T02:38:04+05:30
; #@! TF.GenerationSoftware,Kicad,Pcbnew,10.0.2
; #@! TF.FileFunction,Plated,1,2,PTH
FMAT,2
METRIC
; #@! TA.AperFunction,Plated,PTH,ComponentDrill
T1C0.800
; #@! TA.AperFunction,Plated,PTH,ComponentDrill
T2C0.900
%
G90
G05
T1
X110.0Y-78.92
X110.0Y-81.46
X110.0Y-84.0
X150.0Y-64.92
X150.0Y-67.46
X150.0Y-70.0
X150.0Y-79.0
X150.0Y-81.5
X150.0Y-84.0
T2
X112.0Y-49.92
X112.0Y-52.46
X112.0Y-55.0
X112.0Y-61.92
X112.0Y-64.46
X112.0Y-67.0
X120.425Y-51.375
X120.425Y-53.915
X120.425Y-56.455
X120.425Y-58.995
X120.425Y-61.535
X120.425Y-64.075
X120.425Y-66.615
X120.425Y-69.155
X120.425Y-71.695
X120.425Y-74.235
X120.425Y-76.775
X120.425Y-79.315
X120.425Y-81.855
X120.425Y-84.395
X120.425Y-86.935
X143.285Y-51.375
X143.285Y-53.915
X143.285Y-56.455
X143.285Y-58.995
X143.285Y-61.535
X143.285Y-64.075
X143.285Y-66.615
X143.285Y-69.155
X143.285Y-71.695
X143.285Y-74.235
X143.285Y-76.775
X143.285Y-79.315
X143.285Y-81.855
X143.285Y-84.395
X143.285Y-86.935
X148.46Y-49.0
X148.46Y-57.0
X151.0Y-49.0
X151.0Y-57.0
M30
