%TF.GenerationSoftware,KiCad,Pcbnew,10.0.2*%
%TF.CreationDate,2026-08-08T01:31:16+05:30*%
%TF.ProjectId,Smart Meter IoT,536d6172-7420-44d6-9574-657220496f54,rev?*%
%TF.SameCoordinates,Original*%
%TF.FileFunction,Copper,L1,Top*%
%TF.FilePolarity,Positive*%
%FSLAX46Y46*%
G04 Gerber Fmt 4.6, Leading zero omitted, Abs format (unit mm)*
G04 Created by KiCad (PCBNEW 10.0.2) date 2026-08-08 01:31:16*
%MOMM*%
%LPD*%
G01*
G04 APERTURE LIST*
%TA.AperFunction,ComponentPad*%
%ADD10C,1.500000*%
%TD*%
%TA.AperFunction,ComponentPad*%
%ADD11R,1.500000X1.500000*%
%TD*%
%TA.AperFunction,Conductor*%
%ADD12C,0.200000*%
%TD*%
G04 APERTURE END LIST*
D10*
%TO.P,ACS712,4*%
%TO.N,N/C*%
X592000000Y-88380000D03*
%TO.P,ACS712,3,GND_3*%
%TO.N,Net-(ACS712-GND)*%
X592000000Y-90920000D03*
%TO.P,ACS712,2,OUT_2*%
%TO.N,Net-(ACS712-OUT)*%
X592000000Y-93460000D03*
D11*
%TO.P,ACS712,1,VDD_1*%
%TO.N,Net-(ACS712-VDD)*%
X592000000Y-96000000D03*
%TD*%
%TO.P,ZMPT101B,1,VDD_1*%
%TO.N,Net-(ACS712-VDD)*%
X592000000Y-124000000D03*
D10*
%TO.P,ZMPT101B,2,OUT_2*%
%TO.N,Net-(ESP32-D35)*%
X592000000Y-121460000D03*
%TO.P,ZMPT101B,3,GND_3*%
%TO.N,Net-(ACS712-GND)*%
X592000000Y-118920000D03*
%TO.P,ZMPT101B,4*%
%TO.N,N/C*%
X592000000Y-116380000D03*
%TD*%
D11*
%TO.P,ESP32,1,EN_1*%
%TO.N,unconnected-(ESP32-EN-Pad1)*%
X616425000Y-91375000D03*
D10*
%TO.P,ESP32,2,VP_2*%
%TO.N,unconnected-(ESP32-VP-Pad2)*%
X616425000Y-93915000D03*
%TO.P,ESP32,3,VN_3*%
%TO.N,unconnected-(ESP32-VN-Pad3)*%
X616425000Y-96455000D03*
%TO.P,ESP32,4,D34_4*%
%TO.N,Net-(ACS712-OUT)*%
X616425000Y-98995000D03*
%TO.P,ESP32,5,D35_5*%
%TO.N,Net-(ESP32-D35)*%
X616425000Y-101535000D03*
%TO.P,ESP32,6,D32_6*%
%TO.N,unconnected-(ESP32-D32-Pad6)*%
X616425000Y-104075000D03*
%TO.P,ESP32,7,D33_7*%
%TO.N,unconnected-(ESP32-D33-Pad7)*%
X616425000Y-106615000D03*
%TO.P,ESP32,8,D25_8*%
%TO.N,unconnected-(ESP32-D25-Pad8)*%
X616425000Y-109155000D03*
%TO.P,ESP32,9,D26_9*%
%TO.N,unconnected-(ESP32-D26-Pad9)*%
X616425000Y-111695000D03*
%TO.P,ESP32,10,D27_10*%
%TO.N,unconnected-(ESP32-D27-Pad10)*%
X616425000Y-114235000D03*
%TO.P,ESP32,11,D14_11*%
%TO.N,unconnected-(ESP32-D14-Pad11)*%
X616425000Y-116775000D03*
%TO.P,ESP32,12,D12_12*%
%TO.N,unconnected-(ESP32-D12-Pad12)*%
X616425000Y-119315000D03*
%TO.P,ESP32,13,D13_13*%
%TO.N,unconnected-(ESP32-D13-Pad13)*%
X616425000Y-121855000D03*
%TO.P,ESP32,14,GND_14*%
%TO.N,Net-(ACS712-GND)*%
X616425000Y-124395000D03*
%TO.P,ESP32,15,Vin_15*%
%TO.N,unconnected-(ESP32-Vin-Pad15)*%
X616425000Y-126935000D03*
%TO.P,ESP32,16,3V3_16*%
%TO.N,Net-(ACS712-VDD)*%
X639285000Y-126935000D03*
%TO.P,ESP32,17,GND_17*%
%TO.N,unconnected-(ESP32-GND-Pad17)*%
X639285000Y-124395000D03*
%TO.P,ESP32,18,D15_18*%
%TO.N,unconnected-(ESP32-D15-Pad18)*%
X639285000Y-121855000D03*
%TO.P,ESP32,19,D2_19*%
%TO.N,unconnected-(ESP32-D2-Pad19)*%
X639285000Y-119315000D03*
%TO.P,ESP32,20,D4_20*%
%TO.N,unconnected-(ESP32-D4-Pad20)*%
X639285000Y-116775000D03*
%TO.P,ESP32,21,RX2_21*%
%TO.N,unconnected-(ESP32-RX2-Pad21)*%
X639285000Y-114235000D03*
%TO.P,ESP32,22,TX2_22*%
%TO.N,unconnected-(ESP32-TX2-Pad22)*%
X639285000Y-111695000D03*
%TO.P,ESP32,23,D5_23*%
%TO.N,unconnected-(ESP32-D5-Pad23)*%
X639285000Y-109155000D03*
%TO.P,ESP32,24,D18_24*%
%TO.N,unconnected-(ESP32-D18-Pad24)*%
X639285000Y-106615000D03*
%TO.P,ESP32,25,D19_25*%
%TO.N,unconnected-(ESP32-D19-Pad25)*%
X639285000Y-104075000D03*
%TO.P,ESP32,26,D21_26*%
%TO.N,unconnected-(ESP32-D21-Pad26)*%
X639285000Y-101535000D03*
%TO.P,ESP32,27,RX_27*%
%TO.N,unconnected-(ESP32-RX-Pad27)*%
X639285000Y-98995000D03*
%TO.P,ESP32,28,TX_28*%
%TO.N,unconnected-(ESP32-TX-Pad28)*%
X639285000Y-96455000D03*
%TO.P,ESP32,29,D22_29*%
%TO.N,unconnected-(ESP32-D22-Pad29)*%
X639285000Y-93915000D03*
%TO.P,ESP32,30,D23_30*%
%TO.N,unconnected-(ESP32-D23-Pad30)*%
X639285000Y-91375000D03*
%TD*%
%TO.N,Net-(ACS712-VDD)*%
D12*
X587000000Y-128000000D02*
X596000000Y-128000000D01*
X587000000Y-97000000D02*
X587000000Y-128000000D01*
X588000000Y-96000000D02*
X587000000Y-97000000D01*
X592000000Y-96000000D02*
X588000000Y-96000000D01*
%TO.N,Net-(ESP32-D35)*%
X596500000Y-121460000D02*
X616425000Y-101535000D01*
X592000000Y-121460000D02*
X596500000Y-121460000D01*
%TO.N,Net-(ACS712-OUT)*%
X610890000Y-93460000D02*
X616425000Y-98995000D01*
X592000000Y-93460000D02*
X610890000Y-93460000D01*
%TO.N,Net-(ACS712-VDD)*%
X638220000Y-128000000D02*
X639285000Y-126935000D01*
X596000000Y-128000000D02*
X638220000Y-128000000D01*
X592000000Y-124000000D02*
X596000000Y-128000000D01*
%TD*%
M02*
