M48
; DRILL file KiCad 10.0.2 date 2026-08-08T01:31:30
; FORMAT={-:-/ absolute / metric / decimal}
; #@! TF.CreationDate,2026-08-08T01:31:30+05:30
; #@! TF.GenerationSoftware,Kicad,Pcbnew,10.0.2
; #@! TF.FileFunction,Plated,1,2,PTH
FMAT,2
METRIC
; #@! TA.AperFunction,Plated,PTH,ComponentDrill
T1C0.800
; #@! TA.AperFunction,Plated,PTH,ComponentDrill
T2C0.900
%
G90
G05
T1
X592.0Y-88.38
X592.0Y-90.92
X592.0Y-93.46
X592.0Y-96.0
X592.0Y-116.38
X592.0Y-118.92
X592.0Y-121.46
X592.0Y-124.0
T2
X616.425Y-91.375
X616.425Y-93.915
X616.425Y-96.455
X616.425Y-98.995
X616.425Y-101.535
X616.425Y-104.075
X616.425Y-106.615
X616.425Y-109.155
X616.425Y-111.695
X616.425Y-114.235
X616.425Y-116.775
X616.425Y-119.315
X616.425Y-121.855
X616.425Y-124.395
X616.425Y-126.935
X639.285Y-91.375
X639.285Y-93.915
X639.285Y-96.455
X639.285Y-98.995
X639.285Y-101.535
X639.285Y-104.075
X639.285Y-106.615
X639.285Y-109.155
X639.285Y-111.695
X639.285Y-114.235
X639.285Y-116.775
X639.285Y-119.315
X639.285Y-121.855
X639.285Y-124.395
X639.285Y-126.935
M30
