%TF.GenerationSoftware,KiCad,Pcbnew,10.0.2*%
%TF.CreationDate,2026-08-08T01:31:16+05:30*%
%TF.ProjectId,Smart Meter IoT,536d6172-7420-44d6-9574-657220496f54,rev?*%
%TF.SameCoordinates,Original*%
%TF.FileFunction,Legend,Top*%
%TF.FilePolarity,Positive*%
%FSLAX46Y46*%
G04 Gerber Fmt 4.6, Leading zero omitted, Abs format (unit mm)*
G04 Created by KiCad (PCBNEW 10.0.2) date 2026-08-08 01:31:16*
%MOMM*%
%LPD*%
G01*
G04 APERTURE LIST*
%ADD10C,0.150000*%
%ADD11C,0.120000*%
G04 APERTURE END LIST*
D10*
X625289160Y-87584104D02*
X625765350Y-87584104D01*
X625193922Y-87869819D02*
X625527255Y-86869819D01*
X625527255Y-86869819D02*
X625860588Y-87869819D01*
X626193922Y-87203152D02*
X626193922Y-87869819D01*
X626193922Y-87298390D02*
X626241541Y-87250771D01*
X626241541Y-87250771D02*
X626336779Y-87203152D01*
X626336779Y-87203152D02*
X626479636Y-87203152D01*
X626479636Y-87203152D02*
X626574874Y-87250771D01*
X626574874Y-87250771D02*
X626622493Y-87346009D01*
X626622493Y-87346009D02*
X626622493Y-87869819D01*
X626955827Y-87203152D02*
X627336779Y-87203152D01*
X627098684Y-86869819D02*
X627098684Y-87726961D01*
X627098684Y-87726961D02*
X627146303Y-87822200D01*
X627146303Y-87822200D02*
X627241541Y-87869819D01*
X627241541Y-87869819D02*
X627336779Y-87869819D01*
X628051065Y-87822200D02*
X627955827Y-87869819D01*
X627955827Y-87869819D02*
X627765351Y-87869819D01*
X627765351Y-87869819D02*
X627670113Y-87822200D01*
X627670113Y-87822200D02*
X627622494Y-87726961D01*
X627622494Y-87726961D02*
X627622494Y-87346009D01*
X627622494Y-87346009D02*
X627670113Y-87250771D01*
X627670113Y-87250771D02*
X627765351Y-87203152D01*
X627765351Y-87203152D02*
X627955827Y-87203152D01*
X627955827Y-87203152D02*
X628051065Y-87250771D01*
X628051065Y-87250771D02*
X628098684Y-87346009D01*
X628098684Y-87346009D02*
X628098684Y-87441247D01*
X628098684Y-87441247D02*
X627622494Y-87536485D01*
X628527256Y-87203152D02*
X628527256Y-87869819D01*
X628527256Y-87298390D02*
X628574875Y-87250771D01*
X628574875Y-87250771D02*
X628670113Y-87203152D01*
X628670113Y-87203152D02*
X628812970Y-87203152D01*
X628812970Y-87203152D02*
X628908208Y-87250771D01*
X628908208Y-87250771D02*
X628955827Y-87346009D01*
X628955827Y-87346009D02*
X628955827Y-87869819D01*
X629432018Y-87203152D02*
X629432018Y-87869819D01*
X629432018Y-87298390D02*
X629479637Y-87250771D01*
X629479637Y-87250771D02*
X629574875Y-87203152D01*
X629574875Y-87203152D02*
X629717732Y-87203152D01*
X629717732Y-87203152D02*
X629812970Y-87250771D01*
X629812970Y-87250771D02*
X629860589Y-87346009D01*
X629860589Y-87346009D02*
X629860589Y-87869819D01*
X630765351Y-87869819D02*
X630765351Y-87346009D01*
X630765351Y-87346009D02*
X630717732Y-87250771D01*
X630717732Y-87250771D02*
X630622494Y-87203152D01*
X630622494Y-87203152D02*
X630432018Y-87203152D01*
X630432018Y-87203152D02*
X630336780Y-87250771D01*
X630765351Y-87822200D02*
X630670113Y-87869819D01*
X630670113Y-87869819D02*
X630432018Y-87869819D01*
X630432018Y-87869819D02*
X630336780Y-87822200D01*
X630336780Y-87822200D02*
X630289161Y-87726961D01*
X630289161Y-87726961D02*
X630289161Y-87631723D01*
X630289161Y-87631723D02*
X630336780Y-87536485D01*
X630336780Y-87536485D02*
X630432018Y-87488866D01*
X630432018Y-87488866D02*
X630670113Y-87488866D01*
X630670113Y-87488866D02*
X630765351Y-87441247D01*
X587169104Y-93642856D02*
X587169104Y-93166666D01*
X587454819Y-93738094D02*
X586454819Y-93404761D01*
X586454819Y-93404761D02*
X587454819Y-93071428D01*
X587359580Y-92166666D02*
X587407200Y-92214285D01*
X587407200Y-92214285D02*
X587454819Y-92357142D01*
X587454819Y-92357142D02*
X587454819Y-92452380D01*
X587454819Y-92452380D02*
X587407200Y-92595237D01*
X587407200Y-92595237D02*
X587311961Y-92690475D01*
X587311961Y-92690475D02*
X587216723Y-92738094D01*
X587216723Y-92738094D02*
X587026247Y-92785713D01*
X587026247Y-92785713D02*
X586883390Y-92785713D01*
X586883390Y-92785713D02*
X586692914Y-92738094D01*
X586692914Y-92738094D02*
X586597676Y-92690475D01*
X586597676Y-92690475D02*
X586502438Y-92595237D01*
X586502438Y-92595237D02*
X586454819Y-92452380D01*
X586454819Y-92452380D02*
X586454819Y-92357142D01*
X586454819Y-92357142D02*
X586502438Y-92214285D01*
X586502438Y-92214285D02*
X586550057Y-92166666D01*
X587407200Y-91785713D02*
X587454819Y-91642856D01*
X587454819Y-91642856D02*
X587454819Y-91404761D01*
X587454819Y-91404761D02*
X587407200Y-91309523D01*
X587407200Y-91309523D02*
X587359580Y-91261904D01*
X587359580Y-91261904D02*
X587264342Y-91214285D01*
X587264342Y-91214285D02*
X587169104Y-91214285D01*
X587169104Y-91214285D02*
X587073866Y-91261904D01*
X587073866Y-91261904D02*
X587026247Y-91309523D01*
X587026247Y-91309523D02*
X586978628Y-91404761D01*
X586978628Y-91404761D02*
X586931009Y-91595237D01*
X586931009Y-91595237D02*
X586883390Y-91690475D01*
X586883390Y-91690475D02*
X586835771Y-91738094D01*
X586835771Y-91738094D02*
X586740533Y-91785713D01*
X586740533Y-91785713D02*
X586645295Y-91785713D01*
X586645295Y-91785713D02*
X586550057Y-91738094D01*
X586550057Y-91738094D02*
X586502438Y-91690475D01*
X586502438Y-91690475D02*
X586454819Y-91595237D01*
X586454819Y-91595237D02*
X586454819Y-91357142D01*
X586454819Y-91357142D02*
X586502438Y-91214285D01*
X586454819Y-90880951D02*
X586454819Y-90214285D01*
X586454819Y-90214285D02*
X587454819Y-90642856D01*
X587454819Y-89309523D02*
X587454819Y-89880951D01*
X587454819Y-89595237D02*
X586454819Y-89595237D01*
X586454819Y-89595237D02*
X586597676Y-89690475D01*
X586597676Y-89690475D02*
X586692914Y-89785713D01*
X586692914Y-89785713D02*
X586740533Y-89880951D01*
X586550057Y-88928570D02*
X586502438Y-88880951D01*
X586502438Y-88880951D02*
X586454819Y-88785713D01*
X586454819Y-88785713D02*
X586454819Y-88547618D01*
X586454819Y-88547618D02*
X586502438Y-88452380D01*
X586502438Y-88452380D02*
X586550057Y-88404761D01*
X586550057Y-88404761D02*
X586645295Y-88357142D01*
X586645295Y-88357142D02*
X586740533Y-88357142D01*
X586740533Y-88357142D02*
X586883390Y-88404761D01*
X586883390Y-88404761D02*
X587454819Y-88976189D01*
X587454819Y-88976189D02*
X587454819Y-88357142D01*
X587454819Y-123714285D02*
X587454819Y-123047619D01*
X587454819Y-123047619D02*
X588454819Y-123714285D01*
X588454819Y-123714285D02*
X588454819Y-123047619D01*
X588454819Y-122666666D02*
X587454819Y-122666666D01*
X587454819Y-122666666D02*
X588169104Y-122333333D01*
X588169104Y-122333333D02*
X587454819Y-122000000D01*
X587454819Y-122000000D02*
X588454819Y-122000000D01*
X588454819Y-121523809D02*
X587454819Y-121523809D01*
X587454819Y-121523809D02*
X587454819Y-121142857D01*
X587454819Y-121142857D02*
X587502438Y-121047619D01*
X587502438Y-121047619D02*
X587550057Y-121000000D01*
X587550057Y-121000000D02*
X587645295Y-120952381D01*
X587645295Y-120952381D02*
X587788152Y-120952381D01*
X587788152Y-120952381D02*
X587883390Y-121000000D01*
X587883390Y-121000000D02*
X587931009Y-121047619D01*
X587931009Y-121047619D02*
X587978628Y-121142857D01*
X587978628Y-121142857D02*
X587978628Y-121523809D01*
X587454819Y-120666666D02*
X587454819Y-120095238D01*
X588454819Y-120380952D02*
X587454819Y-120380952D01*
X588454819Y-119238095D02*
X588454819Y-119809523D01*
X588454819Y-119523809D02*
X587454819Y-119523809D01*
X587454819Y-119523809D02*
X587597676Y-119619047D01*
X587597676Y-119619047D02*
X587692914Y-119714285D01*
X587692914Y-119714285D02*
X587740533Y-119809523D01*
X587454819Y-118619047D02*
X587454819Y-118523809D01*
X587454819Y-118523809D02*
X587502438Y-118428571D01*
X587502438Y-118428571D02*
X587550057Y-118380952D01*
X587550057Y-118380952D02*
X587645295Y-118333333D01*
X587645295Y-118333333D02*
X587835771Y-118285714D01*
X587835771Y-118285714D02*
X588073866Y-118285714D01*
X588073866Y-118285714D02*
X588264342Y-118333333D01*
X588264342Y-118333333D02*
X588359580Y-118380952D01*
X588359580Y-118380952D02*
X588407200Y-118428571D01*
X588407200Y-118428571D02*
X588454819Y-118523809D01*
X588454819Y-118523809D02*
X588454819Y-118619047D01*
X588454819Y-118619047D02*
X588407200Y-118714285D01*
X588407200Y-118714285D02*
X588359580Y-118761904D01*
X588359580Y-118761904D02*
X588264342Y-118809523D01*
X588264342Y-118809523D02*
X588073866Y-118857142D01*
X588073866Y-118857142D02*
X587835771Y-118857142D01*
X587835771Y-118857142D02*
X587645295Y-118809523D01*
X587645295Y-118809523D02*
X587550057Y-118761904D01*
X587550057Y-118761904D02*
X587502438Y-118714285D01*
X587502438Y-118714285D02*
X587454819Y-118619047D01*
X588454819Y-117333333D02*
X588454819Y-117904761D01*
X588454819Y-117619047D02*
X587454819Y-117619047D01*
X587454819Y-117619047D02*
X587597676Y-117714285D01*
X587597676Y-117714285D02*
X587692914Y-117809523D01*
X587692914Y-117809523D02*
X587740533Y-117904761D01*
X587931009Y-116571428D02*
X587978628Y-116428571D01*
X587978628Y-116428571D02*
X588026247Y-116380952D01*
X588026247Y-116380952D02*
X588121485Y-116333333D01*
X588121485Y-116333333D02*
X588264342Y-116333333D01*
X588264342Y-116333333D02*
X588359580Y-116380952D01*
X588359580Y-116380952D02*
X588407200Y-116428571D01*
X588407200Y-116428571D02*
X588454819Y-116523809D01*
X588454819Y-116523809D02*
X588454819Y-116904761D01*
X588454819Y-116904761D02*
X587454819Y-116904761D01*
X587454819Y-116904761D02*
X587454819Y-116571428D01*
X587454819Y-116571428D02*
X587502438Y-116476190D01*
X587502438Y-116476190D02*
X587550057Y-116428571D01*
X587550057Y-116428571D02*
X587645295Y-116380952D01*
X587645295Y-116380952D02*
X587740533Y-116380952D01*
X587740533Y-116380952D02*
X587835771Y-116428571D01*
X587835771Y-116428571D02*
X587883390Y-116476190D01*
X587883390Y-116476190D02*
X587931009Y-116571428D01*
X587931009Y-116571428D02*
X587931009Y-116904761D01*
X625857143Y-106931009D02*
X626190476Y-106931009D01*
X626333333Y-107454819D02*
X625857143Y-107454819D01*
X625857143Y-107454819D02*
X625857143Y-106454819D01*
X625857143Y-106454819D02*
X626333333Y-106454819D01*
X626714286Y-107407200D02*
X626857143Y-107454819D01*
X626857143Y-107454819D02*
X627095238Y-107454819D01*
X627095238Y-107454819D02*
X627190476Y-107407200D01*
X627190476Y-107407200D02*
X627238095Y-107359580D01*
X627238095Y-107359580D02*
X627285714Y-107264342D01*
X627285714Y-107264342D02*
X627285714Y-107169104D01*
X627285714Y-107169104D02*
X627238095Y-107073866D01*
X627238095Y-107073866D02*
X627190476Y-107026247D01*
X627190476Y-107026247D02*
X627095238Y-106978628D01*
X627095238Y-106978628D02*
X626904762Y-106931009D01*
X626904762Y-106931009D02*
X626809524Y-106883390D01*
X626809524Y-106883390D02*
X626761905Y-106835771D01*
X626761905Y-106835771D02*
X626714286Y-106740533D01*
X626714286Y-106740533D02*
X626714286Y-106645295D01*
X626714286Y-106645295D02*
X626761905Y-106550057D01*
X626761905Y-106550057D02*
X626809524Y-106502438D01*
X626809524Y-106502438D02*
X626904762Y-106454819D01*
X626904762Y-106454819D02*
X627142857Y-106454819D01*
X627142857Y-106454819D02*
X627285714Y-106502438D01*
X627714286Y-107454819D02*
X627714286Y-106454819D01*
X627714286Y-106454819D02*
X628095238Y-106454819D01*
X628095238Y-106454819D02*
X628190476Y-106502438D01*
X628190476Y-106502438D02*
X628238095Y-106550057D01*
X628238095Y-106550057D02*
X628285714Y-106645295D01*
X628285714Y-106645295D02*
X628285714Y-106788152D01*
X628285714Y-106788152D02*
X628238095Y-106883390D01*
X628238095Y-106883390D02*
X628190476Y-106931009D01*
X628190476Y-106931009D02*
X628095238Y-106978628D01*
X628095238Y-106978628D02*
X627714286Y-106978628D01*
X628619048Y-106454819D02*
X629238095Y-106454819D01*
X629238095Y-106454819D02*
X628904762Y-106835771D01*
X628904762Y-106835771D02*
X629047619Y-106835771D01*
X629047619Y-106835771D02*
X629142857Y-106883390D01*
X629142857Y-106883390D02*
X629190476Y-106931009D01*
X629190476Y-106931009D02*
X629238095Y-107026247D01*
X629238095Y-107026247D02*
X629238095Y-107264342D01*
X629238095Y-107264342D02*
X629190476Y-107359580D01*
X629190476Y-107359580D02*
X629142857Y-107407200D01*
X629142857Y-107407200D02*
X629047619Y-107454819D01*
X629047619Y-107454819D02*
X628761905Y-107454819D01*
X628761905Y-107454819D02*
X628666667Y-107407200D01*
X628666667Y-107407200D02*
X628619048Y-107359580D01*
X629619048Y-106550057D02*
X629666667Y-106502438D01*
X629666667Y-106502438D02*
X629761905Y-106454819D01*
X629761905Y-106454819D02*
X630000000Y-106454819D01*
X630000000Y-106454819D02*
X630095238Y-106502438D01*
X630095238Y-106502438D02*
X630142857Y-106550057D01*
X630142857Y-106550057D02*
X630190476Y-106645295D01*
X630190476Y-106645295D02*
X630190476Y-106740533D01*
X630190476Y-106740533D02*
X630142857Y-106883390D01*
X630142857Y-106883390D02*
X629571429Y-107454819D01*
X629571429Y-107454819D02*
X630190476Y-107454819D01*
%TO.C,ACS712*%
D11*
X597400000Y-84390000D02*
X597400000Y-99990000D01*
X589400000Y-84390000D02*
X597400000Y-84390000D01*
X597400000Y-99990000D02*
X589400000Y-99990000D01*
X589400000Y-99990000D02*
X589400000Y-84390000D01*
X590420000Y-100240000D02*
X589150000Y-100240000D01*
X589150000Y-100240000D02*
X589150000Y-98970000D01*
%TO.C,ZMPT101B*%
X589150000Y-128240000D02*
X589150000Y-126970000D01*
X590420000Y-128240000D02*
X589150000Y-128240000D01*
X589400000Y-127990000D02*
X589400000Y-112390000D01*
X597400000Y-127990000D02*
X589400000Y-127990000D01*
X589400000Y-112390000D02*
X597400000Y-112390000D01*
X597400000Y-112390000D02*
X597400000Y-127990000D01*
%TO.C,ESP32*%
X615155000Y-89695000D02*
X640555000Y-89695000D01*
X615155000Y-128615000D02*
X615155000Y-89695000D01*
X640555000Y-89695000D02*
X640555000Y-128615000D01*
X640555000Y-128615000D02*
X615155000Y-128615000D01*
%TD*%
M02*
